<svg id="p3" viewBox="0 0 720 326" role="img" aria-label="Two panels: Gini falls under both levies, but the variance of the log growth multiplier falls only under the flow levy"><style>text{font-family:Georgia,'Times New Roman',serif}</style><line x1="70" x2="352" y1="224" y2="224" stroke="#e9edf1" stroke-width="1"></line><text x="61" y="228" font-size="10.5" fill="#7b838c" text-anchor="end" font-family="Inter, system-ui, sans-serif" font-weight="400">0.00</text><line x1="70" x2="352" y1="184" y2="184" stroke="#e9edf1" stroke-width="1"></line><text x="61" y="188" font-size="10.5" fill="#7b838c" text-anchor="end" font-family="Inter, system-ui, sans-serif" font-weight="400">0.25</text><line x1="70" x2="352" y1="144" y2="144" stroke="#e9edf1" stroke-width="1"></line><text x="61" y="148" font-size="10.5" fill="#7b838c" text-anchor="end" font-family="Inter, system-ui, sans-serif" font-weight="400">0.50</text><line x1="70" x2="352" y1="104" y2="104" stroke="#e9edf1" stroke-width="1"></line><text x="61" y="108" font-size="10.5" fill="#7b838c" text-anchor="end" font-family="Inter, system-ui, sans-serif" font-weight="400">0.75</text><line x1="70" x2="352" y1="64" y2="64" stroke="#e9edf1" stroke-width="1"></line><text x="61" y="68" font-size="10.5" fill="#7b838c" text-anchor="end" font-family="Inter, system-ui, sans-serif" font-weight="400">1.00</text><line x1="70" x2="352" y1="224" y2="224" stroke="#dfe3e8" stroke-width="1"></line><text x="211" y="40" font-size="12" fill="#0b0e11" text-anchor="middle" font-family="Inter, system-ui, sans-serif" font-weight="600">the outcome — Gini</text><g style="cursor: crosshair;"><path d="M91,224 L91,68.89600000000002 Q91,64.89600000000002 95,64.89600000000002 L139,64.89600000000002 Q143,64.89600000000002 143,68.89600000000002 L143,224 Z" fill="#7b838c"></path><text x="117" y="56.896000000000015" font-size="11.5" fill="#0b0e11" text-anchor="middle" font-family="Inter, system-ui, sans-serif" font-weight="600">0.99</text></g><g style="cursor: crosshair;"><path d="M185,224 L185,192.48 Q185,188.48 189,188.48 L233,188.48 Q237,188.48 237,192.48 L237,224 Z" fill="#2a78d6"></path><text x="211" y="180.48" font-size="11.5" fill="#0b0e11" text-anchor="middle" font-family="Inter, system-ui, sans-serif" font-weight="600">0.22</text></g><g style="cursor: crosshair;"><path d="M279,224 L279,208 Q279,204 283,204 L327,204 Q331,204 331,208 L331,224 Z" fill="#eb6834"></path><text x="305" y="196" font-size="11.5" fill="#0b0e11" text-anchor="middle" font-family="Inter, system-ui, sans-serif" font-weight="600">0.13</text></g><line x1="432" x2="694" y1="224" y2="224" stroke="#e9edf1" stroke-width="1"></line><text x="423" y="228" font-size="10.5" fill="#7b838c" text-anchor="end" font-family="Inter, system-ui, sans-serif" font-weight="400">0.000</text><line x1="432" x2="694" y1="184" y2="184" stroke="#e9edf1" stroke-width="1"></line><text x="423" y="188" font-size="10.5" fill="#7b838c" text-anchor="end" font-family="Inter, system-ui, sans-serif" font-weight="400">0.020</text><line x1="432" x2="694" y1="144" y2="144" stroke="#e9edf1" stroke-width="1"></line><text x="423" y="148" font-size="10.5" fill="#7b838c" text-anchor="end" font-family="Inter, system-ui, sans-serif" font-weight="400">0.040</text><line x1="432" x2="694" y1="104" y2="104" stroke="#e9edf1" stroke-width="1"></line><text x="423" y="108" font-size="10.5" fill="#7b838c" text-anchor="end" font-family="Inter, system-ui, sans-serif" font-weight="400">0.060</text><line x1="432" x2="694" y1="64" y2="64" stroke="#e9edf1" stroke-width="1"></line><text x="423" y="68" font-size="10.5" fill="#7b838c" text-anchor="end" font-family="Inter, system-ui, sans-serif" font-weight="400">0.080</text><line x1="432" x2="694" y1="224" y2="224" stroke="#dfe3e8" stroke-width="1"></line><text x="563" y="40" font-size="12" fill="#0b0e11" text-anchor="middle" font-family="Inter, system-ui, sans-serif" font-weight="600">the generator — Var[log a]</text><g style="cursor: crosshair;"><path d="M449.6666666666667,224 L449.6666666666667,74.916 Q449.6666666666667,70.916 453.6666666666667,70.916 L497.6666666666667,70.916 Q501.6666666666667,70.916 501.6666666666667,74.916 L501.6666666666667,224 Z" fill="#7b838c"></path><text x="475.6666666666667" y="62.916" font-size="11.5" fill="#0b0e11" text-anchor="middle" font-family="Inter, system-ui, sans-serif" font-weight="600">0.077</text></g><g style="cursor: crosshair;"><path d="M537,224 L537,74.928 Q537,70.928 541,70.928 L585,70.928 Q589,70.928 589,74.928 L589,224 Z" fill="#2a78d6"></path><text x="563" y="62.928" font-size="11.5" fill="#0b0e11" text-anchor="middle" font-family="Inter, system-ui, sans-serif" font-weight="600">0.077</text></g><g style="cursor: crosshair;"><path d="M624.3333333333333,224 L624.3333333333333,125.62200000000001 Q624.3333333333333,121.62200000000001 628.3333333333333,121.62200000000001 L672.3333333333333,121.62200000000001 Q676.3333333333333,121.62200000000001 676.3333333333333,125.62200000000001 L676.3333333333333,224 Z" fill="#eb6834"></path><text x="650.3333333333333" y="113.62200000000001" font-size="11.5" fill="#0b0e11" text-anchor="middle" font-family="Inter, system-ui, sans-serif" font-weight="600">0.051</text></g><text x="117" y="244" font-size="10.5" fill="#4d545c" text-anchor="middle" font-family="Inter, system-ui, sans-serif" font-weight="400">no levy</text><text x="475.6666666666667" y="244" font-size="10.5" fill="#4d545c" text-anchor="middle" font-family="Inter, system-ui, sans-serif" font-weight="400">no levy</text><text x="211" y="244" font-size="10.5" fill="#4d545c" text-anchor="middle" font-family="Inter, system-ui, sans-serif" font-weight="400">stock levy at</text><text x="211" y="258" font-size="10.5" fill="#4d545c" text-anchor="middle" font-family="Inter, system-ui, sans-serif" font-weight="400">κ = 0.100</text><text x="563" y="244" font-size="10.5" fill="#4d545c" text-anchor="middle" font-family="Inter, system-ui, sans-serif" font-weight="400">stock levy at</text><text x="563" y="258" font-size="10.5" fill="#4d545c" text-anchor="middle" font-family="Inter, system-ui, sans-serif" font-weight="400">κ = 0.100</text><text x="305" y="244" font-size="10.5" fill="#4d545c" text-anchor="middle" font-family="Inter, system-ui, sans-serif" font-weight="400">flow levy at</text><text x="305" y="258" font-size="10.5" fill="#4d545c" text-anchor="middle" font-family="Inter, system-ui, sans-serif" font-weight="400">κ = 0.103</text><text x="650.3333333333333" y="244" font-size="10.5" fill="#4d545c" text-anchor="middle" font-family="Inter, system-ui, sans-serif" font-weight="400">flow levy at</text><text x="650.3333333333333" y="258" font-size="10.5" fill="#4d545c" text-anchor="middle" font-family="Inter, system-ui, sans-serif" font-weight="400">κ = 0.103</text><text x="382" y="296" font-size="11" fill="#7b838c" text-anchor="middle" font-family="Inter, system-ui, sans-serif" font-weight="400">both levies matched at the same compressive budget, κ ≈ 0.10</text><text x="382" y="314" font-size="11.5" fill="#0b0e11" text-anchor="middle" font-family="Inter, system-ui, sans-serif" font-weight="600">two panels, never two axes</text></svg>